<svg version="1.2" baseProfile="tiny-ps" xmlns="http://www.w3.org/2000/svg" viewBox="0 0 20 17" width="20" height="17">
	<title>//HEADERdd</title>
	<style>
		tspan { white-space:pre }
		.shp0 { fill: #a2b1c9 } 
	</style>
	<g id="//HEADERdd">
		<g id="Top bar">
			<g id="Left icons">
				<path id="messages-icon" class="shp0" d="M19.98 7.26C19.78 8.92 18.69 10.32 17.12 11.21C17.04 11.91 17.3 12.8 18.53 13.71C18.97 14.03 17.08 14.44 15.01 12.92C16.01 11.59 16.46 10.03 16.28 8.49C16.08 6.77 15.1 5.21 13.53 4.09C12.05 3.04 10.14 2.47 8.14 2.47C7.81 2.47 7.47 2.49 7.13 2.52C8.63 1.2 10.92 0.48 13.38 0.75C17.4 1.19 20.36 4.11 19.98 7.26ZM15.07 8.63C15.44 11.79 12.49 14.7 8.47 15.14C8.12 15.18 7.78 15.2 7.44 15.2C7.07 15.2 6.71 15.18 6.35 15.14C4.91 16.6 3.41 17 2.57 17C2.03 17 1.77 16.83 1.96 16.69C3.19 15.78 3.45 14.89 3.37 14.19C1.79 13.3 0.7 11.91 0.51 10.24C0.13 7.09 3.09 4.17 7.11 3.73C7.46 3.69 7.8 3.67 8.14 3.67C11.72 3.67 14.73 5.75 15.07 8.63Z" />
			</g>
		</g>
	</g>
</svg>