<svg version="1.2" baseProfile="tiny-ps" xmlns="http://www.w3.org/2000/svg" viewBox="0 0 18 18" width="18" height="18">
	<title>//HEADER</title>
	<style>
		tspan { white-space:pre }
		.shp0 { opacity: 0.502;fill: #ffffff } 
	</style>
	<g id="//HEADER">
		<g id="Top bar">
			<path id="search" class="shp0" d="M7.98 16.04C3.59 16.04 0.01 12.44 0.01 8.02C0.01 3.59 3.59 0 7.98 0C12.38 0 15.96 3.59 15.96 8.02C15.96 12.44 12.38 16.04 7.98 16.04ZM7.97 2.24C4.77 2.24 2.17 4.84 2.17 8.04C2.17 11.24 4.77 13.84 7.97 13.84C11.17 13.84 13.77 11.24 13.77 8.04C13.77 4.84 11.17 2.24 7.97 2.24ZM12.57 13.95L13.98 12.53L17.99 16.57L16.57 17.99L12.57 13.95Z" />
		</g>
	</g>
</svg>