<svg version="1.2" baseProfile="tiny-ps" xmlns="http://www.w3.org/2000/svg" viewBox="0 0 14 14" width="14" height="14">
	<title>// PROFILE//</title>
	<style>
		tspan { white-space:pre }
		.shp0 { fill: #a6bad1 } 
	</style>
	<g id="// PROFILE//">
		<g id="title &amp; status">
			<path id="page is approved" class="shp0" d="M7 0C3.13 0 0 3.13 0 7C0 10.87 3.13 14 7 14C10.87 14 14 10.87 14 7C14 3.13 10.87 0 7 0ZM10.68 5.53L6.6 9.49C6.49 9.61 6.26 9.7 6.09 9.7L5.74 9.7C5.57 9.7 5.34 9.61 5.22 9.49L3.3 7.62C3.18 7.51 3.18 7.32 3.3 7.21L4.06 6.48C4.17 6.36 4.37 6.36 4.48 6.47L5.71 7.66C5.83 7.77 6.02 7.77 6.14 7.66L9.5 4.39C9.62 4.28 9.81 4.28 9.93 4.39L10.68 5.12C10.8 5.23 10.8 5.42 10.68 5.53Z" />
		</g>
	</g>
</svg>